<svg width="132" height="132" viewBox="0 0 132 132" fill="none" xmlns="http://www.w3.org/2000/svg">
<g clip-path="url(#clip0_918_2055)">
<path d="M10.6992 0.361131C9.33281 0.979881 8.25 2.55254 8.25 3.91894C8.25 4.22832 8.48203 4.97597 8.79141 5.59472C9.30703 6.65176 9.53906 6.80644 14.4375 9.28144C19.9031 12.0143 20.5734 12.2205 22.1719 11.3955C24.2086 10.39 24.8789 7.76035 23.5898 5.85254C23.0484 5.05332 22.1203 4.51191 18.0211 2.44941C12.9422 -0.0771506 12.1945 -0.309182 10.6992 0.361131Z" fill="#7044FF"/>
<path d="M47.5148 0.386516C44.7562 0.979485 42.6164 2.1912 40.4508 4.35683C35.8101 8.99745 34.7789 15.3396 37.6922 21.3982C38.414 22.9193 39.7547 24.3631 51.2789 35.9131C65.0976 49.7834 64.8656 49.5771 66.9797 49.0099C67.7531 48.7779 70.1765 46.4834 80.7211 35.9131C92.2453 24.3631 93.5859 22.9193 94.3078 21.3982C97.2211 15.3396 96.1898 8.99745 91.5492 4.35683C87.7594 0.566985 82.8867 -0.799421 77.7305 0.515422C74.6367 1.31464 72.7805 2.50058 69.1711 6.00683L66 9.10058L62.7 5.9037C59.0648 2.34589 57.4664 1.34042 54.2437 0.515422C51.975 -0.0775463 49.8094 -0.103328 47.5148 0.386516Z" fill="#7044FF"/>
<path d="M113.902 2.50078C108.307 5.33672 107.766 5.82656 107.766 7.99219C107.766 10.1063 109.493 11.8594 111.581 11.8594C112.535 11.8594 121.43 7.60547 122.435 6.67734C123.131 6.03281 123.75 4.66641 123.75 3.81563C123.75 3.50625 123.518 2.75859 123.209 2.16563C122.616 0.928125 121.095 1.71363e-07 119.677 1.71363e-07C119.161 1.71363e-07 117.073 0.902344 113.902 2.50078Z" fill="#7044FF"/>
<path d="M14.4117 31.582C9.17812 34.2117 8.61094 34.7016 8.35312 36.6609C8.06953 38.8781 9.79687 40.7344 12.1687 40.7344C13.2258 40.7344 14.1023 40.3734 18.0211 38.4398C23.7445 35.5523 24.518 34.7789 24.157 32.1492C24.0539 31.3242 23.7703 30.8344 22.9711 30.1125C22.043 29.2359 21.8109 29.1328 20.5734 29.1586C19.3875 29.1586 18.6141 29.468 14.4117 31.582Z" fill="#7044FF"/>
<path d="M109.029 30.1125C108.23 30.8344 107.946 31.3242 107.843 32.1492C107.482 34.7789 108.255 35.5523 113.979 38.4398C117.898 40.3734 118.774 40.7344 119.831 40.7344C122.203 40.7344 123.93 38.8781 123.647 36.6609C123.389 34.6758 122.822 34.2117 117.537 31.582C113.309 29.468 112.484 29.1328 111.375 29.1328C110.215 29.1328 109.931 29.2359 109.029 30.1125Z" fill="#7044FF"/>
<path d="M21.2953 57.6211C10.5445 61.9266 1.52111 65.6648 1.21173 65.9227C0.077358 66.9281 -0.309361 69.0164 0.360952 70.3313C0.979702 71.5172 1.85626 72.1102 4.58908 73.193L7.21876 74.25L31.1953 64.6594C44.3953 59.3742 55.1719 54.9914 55.1719 54.9141C55.1719 54.5531 42.6422 49.7578 41.7656 49.7578C41.1984 49.7836 33.4383 52.7484 21.2953 57.6211Z" fill="#7044FF"/>
<path d="M82.9641 52.2844C79.5867 53.6508 76.8281 54.8367 76.8281 54.9141C76.8281 54.9914 87.6047 59.3742 100.805 64.6594L124.781 74.25L127.411 73.193C128.88 72.6258 130.376 71.8523 130.788 71.4656C132.284 70.0477 132.335 67.5727 130.891 66.1289C129.757 64.9945 91.6781 49.732 90.1055 49.7836C89.4352 49.8094 86.857 50.7117 82.9641 52.2844Z" fill="#7044FF"/>
<path d="M65.2266 59.4516C61.643 60.7664 20.625 77.2664 20.3156 77.55C19.7742 78.0141 19.6969 78.968 20.1867 79.3289C20.9086 79.8961 65.3039 97.4531 66 97.4531C66.6961 97.4531 111.091 79.8961 111.839 79.3289C112.303 78.968 112.226 78.0141 111.71 77.55C111.143 77.0602 67.4437 59.6063 66.3867 59.4516C65.9742 59.3742 65.4328 59.3742 65.2266 59.4516Z" fill="#7044FF"/>
<path d="M4.15079 83.815C1.44375 84.9494 0.850786 85.3619 0.360942 86.5479C-0.335152 88.1463 0.0257859 89.7189 1.34063 90.9307C1.65 91.24 10.6992 94.9783 21.3984 99.258C36.0938 105.162 41.1211 107.044 41.8945 107.044C42.5648 107.018 45.0914 106.142 49.1133 104.543C52.5164 103.177 55.3266 102.017 55.3781 101.965C55.5328 101.81 7.57969 82.758 7.08985 82.7838C6.80625 82.7838 5.49141 83.2479 4.15079 83.815Z" fill="#7044FF"/>
<path d="M100.444 92.2967C87.4242 97.5303 76.725 101.862 76.6734 101.913C76.6219 101.965 79.432 103.151 82.9125 104.543C87.0117 106.167 89.5898 107.069 90.2344 107.069C90.9047 107.069 97.1695 104.672 110.679 99.2834C127.927 92.374 130.273 91.3686 130.943 90.5951C132.284 89.074 132.258 86.6764 130.891 85.3873C130.195 84.7428 125.452 82.7576 124.678 82.7834C124.369 82.7834 113.489 87.0889 100.444 92.2967Z" fill="#7044FF"/>
<path d="M17.5312 108.204C17.5312 110.679 17.8922 112.071 18.743 112.973C19.2586 113.515 24.982 115.913 42.307 122.848C54.9141 127.875 65.5875 132 66 132C66.4125 132 77.0859 127.875 89.693 122.848C107.018 115.913 112.741 113.515 113.257 112.973C113.618 112.587 114.03 111.813 114.185 111.246C114.495 110.086 114.572 106.219 114.288 106.219C114.185 106.219 109.441 108.075 103.77 110.344C97.2984 112.922 92.8641 114.546 91.8586 114.701C88.9711 115.165 87.7852 114.804 76.5187 110.318L66 106.116L55.507 110.318C44.2148 114.804 43.0289 115.165 40.1414 114.701C39.1359 114.546 34.7016 112.922 28.2305 110.344C22.5586 108.075 17.8148 106.219 17.7117 106.219C17.6086 106.219 17.5312 107.121 17.5312 108.204Z" fill="#7044FF"/>
</g>
<defs>
<clipPath id="clip0_918_2055">
<rect width="132" height="132" fill="white"/>
</clipPath>
</defs>
</svg>
