<svg width="518" height="151" viewBox="0 0 518 151" fill="none" xmlns="http://www.w3.org/2000/svg">
<g clip-path="url(#clip0_917_2034)">
<path d="M10.6992 10.3609C9.33281 10.9796 8.25 12.5523 8.25 13.9187C8.25 14.2281 8.48203 14.9757 8.79141 15.5945C9.30703 16.6515 9.53906 16.8062 14.4375 19.2812C19.9031 22.014 20.5734 22.2203 22.1719 21.3953C24.2086 20.3898 24.8789 17.7601 23.5898 15.8523C23.0484 15.0531 22.1203 14.5117 18.0211 12.4492C12.9422 9.92261 12.1945 9.69057 10.6992 10.3609Z" fill="#222428"/>
<path d="M47.5148 10.3868C44.7562 10.9797 42.6164 12.1914 40.4508 14.3571C35.8101 18.9977 34.7789 25.3399 37.6922 31.3985C38.414 32.9196 39.7547 34.3633 51.2789 45.9133C65.0976 59.7836 64.8656 59.5774 66.9797 59.0102C67.7531 58.7782 70.1765 56.4836 80.7211 45.9133C92.2453 34.3633 93.5859 32.9196 94.3078 31.3985C97.2211 25.3399 96.1898 18.9977 91.5492 14.3571C87.7594 10.5672 82.8867 9.20082 77.7305 10.5157C74.6367 11.3149 72.7805 12.5008 69.1711 16.0071L66 19.1008L62.7 15.9039C59.0648 12.3461 57.4664 11.3407 54.2437 10.5157C51.975 9.9227 49.8094 9.89692 47.5148 10.3868Z" fill="#222428"/>
<path d="M113.902 12.5008C108.307 15.3367 107.766 15.8266 107.766 17.9922C107.766 20.1063 109.493 21.8594 111.581 21.8594C112.535 21.8594 121.43 17.6055 122.435 16.6773C123.131 16.0328 123.75 14.6664 123.75 13.8156C123.75 13.5063 123.518 12.7586 123.209 12.1656C122.616 10.9281 121.095 10 119.677 10C119.161 10 117.073 10.9023 113.902 12.5008Z" fill="#222428"/>
<path d="M14.4117 41.582C9.17812 44.2117 8.61094 44.7016 8.35312 46.6609C8.06953 48.8781 9.79687 50.7344 12.1687 50.7344C13.2258 50.7344 14.1023 50.3734 18.0211 48.4398C23.7445 45.5523 24.518 44.7789 24.157 42.1492C24.0539 41.3242 23.7703 40.8344 22.9711 40.1125C22.043 39.2359 21.8109 39.1328 20.5734 39.1586C19.3875 39.1586 18.6141 39.468 14.4117 41.582Z" fill="#222428"/>
<path d="M109.029 40.1125C108.23 40.8344 107.946 41.3242 107.843 42.1492C107.482 44.7789 108.255 45.5523 113.979 48.4398C117.898 50.3734 118.774 50.7344 119.831 50.7344C122.203 50.7344 123.93 48.8781 123.647 46.6609C123.389 44.6758 122.822 44.2117 117.537 41.582C113.309 39.468 112.484 39.1328 111.375 39.1328C110.215 39.1328 109.931 39.2359 109.029 40.1125Z" fill="#222428"/>
<path d="M21.2953 67.6211C10.5445 71.9266 1.52111 75.6648 1.21173 75.9227C0.077358 76.9281 -0.309361 79.0164 0.360952 80.3313C0.979702 81.5172 1.85626 82.1102 4.58908 83.193L7.21876 84.25L31.1953 74.6594C44.3953 69.3742 55.1719 64.9914 55.1719 64.9141C55.1719 64.5531 42.6422 59.7578 41.7656 59.7578C41.1984 59.7836 33.4383 62.7484 21.2953 67.6211Z" fill="#222428"/>
<path d="M82.9641 62.2844C79.5867 63.6508 76.8281 64.8367 76.8281 64.9141C76.8281 64.9914 87.6047 69.3742 100.805 74.6594L124.781 84.25L127.411 83.193C128.88 82.6258 130.376 81.8523 130.788 81.4656C132.284 80.0477 132.335 77.5727 130.891 76.1289C129.757 74.9945 91.6781 59.732 90.1055 59.7836C89.4352 59.8094 86.857 60.7117 82.9641 62.2844Z" fill="#222428"/>
<path d="M65.2266 69.4516C61.643 70.7664 20.625 87.2664 20.3156 87.55C19.7742 88.0141 19.6969 88.968 20.1867 89.3289C20.9086 89.8961 65.3039 107.453 66 107.453C66.6961 107.453 111.091 89.8961 111.839 89.3289C112.303 88.968 112.226 88.0141 111.71 87.55C111.143 87.0602 67.4437 69.6063 66.3867 69.4516C65.9742 69.3742 65.4328 69.3742 65.2266 69.4516Z" fill="#222428"/>
<path d="M4.15079 93.8148C1.44375 94.9492 0.850786 95.3617 0.360942 96.5476C-0.335152 98.146 0.0257859 99.7187 1.34063 100.93C1.65 101.24 10.6992 104.978 21.3984 109.258C36.0938 115.162 41.1211 117.044 41.8945 117.044C42.5648 117.018 45.0914 116.141 49.1133 114.543C52.5164 113.177 55.3266 112.016 55.3781 111.965C55.5328 111.81 7.57969 92.7578 7.08985 92.7835C6.80625 92.7835 5.49141 93.2476 4.15079 93.8148Z" fill="#222428"/>
<path d="M100.444 102.297C87.4242 107.531 76.725 111.862 76.6734 111.913C76.6219 111.965 79.432 113.151 82.9125 114.543C87.0117 116.167 89.5898 117.07 90.2344 117.07C90.9047 117.07 97.1695 114.672 110.679 109.284C127.927 102.374 130.273 101.369 130.943 100.595C132.284 99.0743 132.258 96.6766 130.891 95.3875C130.195 94.743 125.452 92.7579 124.678 92.7836C124.369 92.7836 113.489 97.0891 100.444 102.297Z" fill="#222428"/>
<path d="M17.5312 118.204C17.5312 120.679 17.8922 122.071 18.743 122.973C19.2586 123.515 24.982 125.913 42.307 132.848C54.9141 137.875 65.5875 142 66 142C66.4125 142 77.0859 137.875 89.693 132.848C107.018 125.913 112.741 123.515 113.257 122.973C113.618 122.587 114.03 121.813 114.185 121.246C114.495 120.086 114.572 116.219 114.288 116.219C114.185 116.219 109.441 118.075 103.77 120.344C97.2984 122.922 92.8641 124.546 91.8586 124.701C88.9711 125.165 87.7852 124.804 76.5187 120.318L66 116.116L55.507 120.318C44.2148 124.804 43.0289 125.165 40.1414 124.701C39.1359 124.546 34.7016 122.922 28.2305 120.344C22.5586 118.075 17.8148 116.219 17.7117 116.219C17.6086 116.219 17.5312 117.121 17.5312 118.204Z" fill="#222428"/>
</g>
<path d="M163.32 118.96C161.88 118.16 161.08 117.28 160.92 116.32C160.84 115.36 161.4 113.68 162.6 111.28C163.8 108.88 165.68 105.16 168.24 100.12C170.16 96.52 171.44 93.72 172.08 91.72C172.8 89.64 173.2 88.16 173.28 87.28C173.36 86.4 173.4 85.84 173.4 85.6C173.24 84.88 173.32 84.32 173.64 83.92C173.96 83.44 174.48 83.04 175.2 82.72C175.6 82.32 176.52 81.6 177.96 80.56C179.4 79.52 180.52 78.28 181.32 76.84C182.04 75.16 182.84 73.44 183.72 71.68C184.68 69.92 185.92 67.72 187.44 65.08C188.96 62.36 191 58.84 193.56 54.52C195.16 51.72 197.04 48.56 199.2 45.04C201.44 41.52 203.64 38.32 205.8 35.44C206.68 34.32 207.6 33.44 208.56 32.8C209.52 32.16 210.36 31.84 211.08 31.84C212.84 31.84 214.6 32.32 216.36 33.28C218.12 34.16 219.68 35.28 221.04 36.64C222.4 38 223.32 39.28 223.8 40.48C224.2 41.12 224.36 42.48 224.28 44.56C224.2 46.64 224.04 49.16 223.8 52.12C223.56 55.08 223.28 58.24 222.96 61.6C222.72 64.88 222.36 68.76 221.88 73.24C221.4 77.72 220.92 82.4 220.44 87.28C220.04 92.16 219.72 96.88 219.48 101.44C219.24 105.92 219.24 109.84 219.48 113.2C219.56 113.92 219.56 114.6 219.48 115.24C219.4 115.88 219.36 116.4 219.36 116.8C218.88 117.28 217.84 117.48 216.24 117.4C214.64 117.4 213.08 117.16 211.56 116.68C210.04 116.2 209.2 115.6 209.04 114.88C208.8 114.64 208.64 114.44 208.56 114.28C208.48 114.12 208.48 113.36 208.56 112C208.64 110.56 208.76 107.96 208.92 104.2L209.52 85.84L207.96 85.96C207.24 85.96 205.92 86.04 204 86.2C202.16 86.36 200.12 86.6 197.88 86.92C195.72 87.16 193.72 87.44 191.88 87.76C190.04 88 188.76 88.24 188.04 88.48C187.32 88.48 186.44 88.96 185.4 89.92C184.44 90.88 183.52 92.12 182.64 93.64C182.32 94.76 181.72 95.96 180.84 97.24C180.04 98.44 179.64 99.24 179.64 99.64C179.08 100.04 178.6 100.52 178.2 101.08C177.88 101.64 177.72 101.92 177.72 101.92C177.72 102.4 177.36 103.6 176.64 105.52C175.92 107.36 175.04 109.44 174 111.76C172.96 114 171.88 115.96 170.76 117.64L167.52 122.2L163.32 118.96ZM192 77.68C192 77.68 192.44 77.6 193.32 77.44C194.2 77.28 195.24 77.12 196.44 76.96C197.72 76.72 198.84 76.6 199.8 76.6C201.64 76.12 203.16 75.76 204.36 75.52C205.64 75.28 206.68 75.16 207.48 75.16C208.28 75.08 208.92 75.16 209.4 75.4C209.72 75.8 210 76.04 210.24 76.12C210.56 76.2 210.72 76.24 210.72 76.24C210.8 76.08 210.96 75.24 211.2 73.72C211.44 72.2 211.72 70.32 212.04 68.08C212.36 65.84 212.68 63.52 213 61.12C213.32 58.64 213.6 56.36 213.84 54.28C214.08 52.12 214.24 50.44 214.32 49.24C214.4 47.72 214.36 46.36 214.2 45.16C214.04 43.88 213.96 43.24 213.96 43.24C213.48 43.24 212.56 44.12 211.2 45.88C209.92 47.56 208.4 49.84 206.64 52.72C204.96 55.52 203.28 58.56 201.6 61.84C200.8 63.36 200.04 64.56 199.32 65.44C198.68 66.32 198.16 66.76 197.76 66.76C197.6 66.92 197.16 67.56 196.44 68.68C195.8 69.72 195.08 70.92 194.28 72.28C193.56 73.56 192.92 74.76 192.36 75.88C191.88 76.92 191.76 77.52 192 77.68ZM226.261 140.08C224.501 141.84 222.221 142.68 219.421 142.6C216.701 142.6 214.381 141.6 212.461 139.6C210.621 137.04 209.381 134.56 208.741 132.16C208.021 129.84 207.861 127.92 208.261 126.4C208.661 124.88 209.501 124.12 210.781 124.12C211.181 124.12 211.781 124.28 212.581 124.6C213.301 124.92 213.981 125.32 214.621 125.8C215.261 126.28 215.581 126.84 215.581 127.48C215.581 128.68 215.701 129.72 215.941 130.6C216.181 131.48 216.821 132 217.861 132.16C218.741 132.48 219.621 132.36 220.501 131.8C221.461 131.32 222.381 130.36 223.261 128.92C224.061 127.88 224.941 126.24 225.901 124C226.861 121.76 227.821 119.4 228.781 116.92C229.741 114.52 230.501 112.56 231.061 111.04C232.021 107.76 232.781 104.44 233.341 101.08C233.901 97.64 234.581 93.96 235.381 90.04C235.701 87.88 236.061 86.04 236.461 84.52C236.941 82.92 237.181 81.96 237.181 81.64C237.181 81.32 237.221 80.68 237.301 79.72C237.381 78.68 237.621 77.76 238.021 76.96C238.021 75.76 238.181 74.4 238.501 72.88C238.901 71.36 239.101 70.44 239.101 70.12C239.341 69.88 239.821 69.88 240.541 70.12C241.341 70.28 242.141 70.56 242.941 70.96C243.821 71.36 244.461 71.76 244.861 72.16C245.501 72.8 246.061 73.52 246.541 74.32C247.021 75.04 247.341 76.24 247.501 77.92C247.741 79.52 247.661 82 247.261 85.36C247.261 85.84 247.141 86.84 246.901 88.36C246.661 89.8 246.341 91.44 245.941 93.28C245.541 95.12 245.141 96.92 244.741 98.68C244.341 100.36 244.021 101.76 243.781 102.88C243.461 104.08 243.101 105.4 242.701 106.84C242.301 108.28 242.061 109.28 241.981 109.84C241.901 110.32 241.621 111.28 241.141 112.72C240.661 114.08 240.141 115.44 239.581 116.8C239.101 118.16 238.821 119.12 238.741 119.68C238.661 120 238.421 120.76 238.021 121.96C237.701 123.16 236.981 125 235.861 127.48C235.461 128.44 234.621 129.8 233.341 131.56C232.061 133.4 230.741 135.12 229.381 136.72C228.021 138.4 226.981 139.52 226.261 140.08ZM244.021 57.88C243.141 56.84 242.861 55.16 243.181 52.84C243.581 50.52 244.421 48.52 245.701 46.84C246.741 45.64 248.141 44.96 249.901 44.8C251.741 44.64 253.181 45 254.221 45.88C255.101 47.24 255.661 48.6 255.901 49.96C256.141 51.32 255.821 52.64 254.941 53.92C252.941 56.16 250.861 57.6 248.701 58.24C246.621 58.88 245.061 58.76 244.021 57.88ZM283.156 114.76C282.356 113.96 281.716 112.88 281.236 111.52C280.756 110.08 280.276 108.44 279.796 106.6C279.636 105.96 279.556 105.24 279.556 104.44C279.636 103.64 279.636 103 279.556 102.52C279.316 103.08 278.916 103.8 278.356 104.68C277.876 105.56 277.396 106.2 276.916 106.6C276.596 106.92 275.876 107.56 274.756 108.52C273.636 109.4 272.516 110.12 271.396 110.68C268.756 112.36 266.396 113.16 264.316 113.08C262.316 112.92 260.556 111.88 259.036 109.96C257.756 108.92 256.716 107.6 255.916 106C255.116 104.4 254.956 102.48 255.436 100.24C255.596 97.44 255.996 94.72 256.636 92.08C257.276 89.36 258.596 85.76 260.596 81.28C262.276 78 263.556 75.44 264.436 73.6C265.316 71.76 265.876 70.68 266.116 70.36C267.316 69.96 268.796 70 270.556 70.48C272.316 70.88 273.276 71.64 273.436 72.76C273.916 73.56 273.916 75.08 273.436 77.32C272.956 79.48 271.996 81.96 270.556 84.76C269.436 87.48 268.356 90.12 267.316 92.68C266.356 95.24 265.756 97.4 265.516 99.16C265.356 100.92 265.836 102 266.956 102.4C267.676 102.8 268.716 102.76 270.076 102.28C271.516 101.8 273.196 100.36 275.116 97.96C277.036 95.56 279.076 91.76 281.236 86.56C281.876 84.96 282.356 83.56 282.676 82.36C282.996 81.08 283.196 79.68 283.276 78.16C283.116 77.2 283.356 76.2 283.996 75.16C284.716 74.12 285.556 73.32 286.516 72.76C286.836 72.36 287.276 72 287.836 71.68C288.396 71.28 288.756 71.28 288.916 71.68L290.836 71.56C291.156 71.48 291.516 71.8 291.916 72.52C292.316 73.24 292.716 73.76 293.116 74.08C293.996 74.8 294.396 76.36 294.316 78.76C294.236 81.16 293.276 84.52 291.436 88.84C289.916 92.12 288.876 94.6 288.316 96.28C287.836 97.96 287.556 99.6 287.476 101.2C287.476 102.64 287.596 103.88 287.836 104.92C288.076 105.88 288.796 106.88 289.996 107.92C290.876 108.48 291.356 109.44 291.436 110.8C291.596 112.08 291.636 113.2 291.556 114.16C291.396 114.88 290.756 115.36 289.636 115.6C288.596 115.92 287.436 116 286.156 115.84C284.956 115.68 283.956 115.32 283.156 114.76ZM333.69 114.88C332.49 114.96 331.37 115 330.33 115C329.37 115 328.61 114.84 328.05 114.52C326.61 113.32 325.65 112.36 325.17 111.64C324.77 110.92 324.57 110.12 324.57 109.24C324.65 108.12 324.69 107 324.69 105.88C324.69 104.68 324.69 103.76 324.69 103.12C324.37 102.8 323.73 103.16 322.77 104.2C321.81 105.24 320.69 106.24 319.41 107.2C316.93 110 314.73 112.04 312.81 113.32C310.89 114.52 309.13 115.2 307.53 115.36C305.93 115.6 304.33 115.64 302.73 115.48C301.29 115.32 300.01 114.6 298.89 113.32C297.85 112.04 297.05 110.48 296.49 108.64C296.01 106.8 295.85 105 296.01 103.24C296.41 99.96 297.13 97 298.17 94.36C299.21 91.64 300.77 88.8 302.85 85.84C303.81 84.56 305.09 83.16 306.69 81.64C308.37 80.12 310.17 78.72 312.09 77.44C314.01 76.08 315.73 75.12 317.25 74.56C319.57 73.52 321.49 73.04 323.01 73.12C324.61 73.2 326.17 73.44 327.69 73.84C328.81 74.4 329.69 74.68 330.33 74.68C331.05 74.68 331.57 74.28 331.89 73.48C332.37 72.84 332.73 72.04 332.97 71.08C333.21 70.12 333.61 69.2 334.17 68.32L336.81 60.52C337.69 58.36 338.73 55.88 339.93 53.08C341.13 50.28 342.49 47.16 344.01 43.72C345.85 40.6 347.41 38.96 348.69 38.8C350.05 38.64 351.45 39.36 352.89 40.96C353.85 41.92 354.37 43.12 354.45 44.56C354.61 45.92 354.25 47.52 353.37 49.36C352.81 50.24 352.21 51.36 351.57 52.72C350.93 54 350.17 55.52 349.29 57.28C348.41 59.36 347.49 61.44 346.53 63.52C345.65 65.6 344.73 67.88 343.77 70.36C343.45 71.64 343.01 73.12 342.45 74.8C341.97 76.48 341.57 78 341.25 79.36C341.01 80.64 340.73 81.84 340.41 82.96C340.17 84 339.89 84.52 339.57 84.52C338.93 85.08 338.33 86.28 337.77 88.12C337.21 89.88 336.73 91.76 336.33 93.76C336.01 95.76 335.73 97.4 335.49 98.68C335.33 99.64 335.21 101 335.13 102.76C335.05 104.44 335.01 106.08 335.01 107.68C335.01 109.2 335.01 110.24 335.01 110.8C335.01 112.32 334.89 113.4 334.65 114.04C334.49 114.6 334.17 114.88 333.69 114.88ZM306.57 105.4C308.41 105.4 310.13 104.64 311.73 103.12C313.41 101.52 315.25 99.84 317.25 98.08C318.45 96.88 319.69 95.56 320.97 94.12C322.25 92.6 323.41 91.12 324.45 89.68C325.57 88.24 326.45 87 327.09 85.96C327.73 84.92 328.05 84.24 328.05 83.92C328.05 83.52 327.73 83.16 327.09 82.84C326.53 82.52 325.85 82.28 325.05 82.12C324.25 81.88 323.53 81.84 322.89 82C320.97 82.56 319.41 83.4 318.21 84.52C317.09 85.64 315.45 87.4 313.29 89.8C311.13 92.44 309.41 94.96 308.13 97.36C306.85 99.76 306.05 101.72 305.73 103.24C305.49 104.68 305.77 105.4 306.57 105.4ZM359.651 117.16C355.251 117.16 351.851 115.88 349.451 113.32C347.131 110.76 345.971 106.84 345.971 101.56C345.971 98.68 346.491 95.52 347.531 92.08C348.651 88.64 350.091 85.28 351.851 82C353.691 78.72 355.691 75.88 357.851 73.48C360.011 71 362.171 69.28 364.331 68.32C365.131 67.92 365.971 67.64 366.851 67.48C367.811 67.24 368.731 67.12 369.611 67.12C370.571 67.12 371.611 67.2 372.731 67.36C373.931 67.44 375.051 67.68 376.091 68.08C377.931 68.64 379.531 69.72 380.891 71.32C382.331 72.92 383.051 75.24 383.051 78.28C383.051 79.08 382.971 79.96 382.811 80.92C382.651 81.8 382.371 82.68 381.971 83.56C380.931 86.2 379.331 88.72 377.171 91.12C375.091 93.52 372.891 95.2 370.571 96.16C369.931 96.48 369.291 96.72 368.651 96.88C368.091 96.96 367.491 97 366.851 97C365.171 97 363.651 96.76 362.291 96.28C361.011 95.8 359.811 95.16 358.691 94.36L357.731 93.52L357.131 94.72C356.571 96.24 356.171 97.52 355.931 98.56C355.771 99.6 355.691 100.36 355.691 100.84C355.691 101.8 355.731 102.8 355.811 103.84C355.891 104.8 356.131 105.6 356.531 106.24C356.851 106.64 357.251 106.96 357.731 107.2C358.291 107.44 358.971 107.56 359.771 107.56C360.251 107.56 360.691 107.56 361.091 107.56C361.571 107.48 361.971 107.4 362.291 107.32C363.731 107 364.891 106.48 365.771 105.76C366.731 104.96 367.731 104.28 368.771 103.72L369.251 103.48L369.131 103.12C370.491 102.4 371.411 101.96 371.891 101.8C372.371 101.56 372.731 101.36 372.971 101.2C373.291 100.88 373.651 100.72 374.051 100.72C375.171 100.56 376.251 100.88 377.291 101.68C378.411 102.4 378.971 103.32 378.971 104.44C378.971 104.92 378.611 105.68 377.891 106.72C377.251 107.76 376.411 108.8 375.371 109.84C374.411 110.8 373.411 111.56 372.371 112.12C372.131 112.2 371.891 112.32 371.651 112.48C371.411 112.56 371.171 112.68 370.931 112.84H371.051C370.331 113.8 369.611 114.28 368.891 114.28H367.931C367.611 114.84 366.571 115.44 364.811 116.08C363.051 116.8 361.331 117.16 359.651 117.16ZM365.891 88.24C366.611 88.24 367.251 88.12 367.811 87.88C368.451 87.64 369.051 87.36 369.611 87.04C371.531 85.68 372.771 83.92 373.331 81.76C373.891 79.6 373.691 77.96 372.731 76.84C372.571 76.6 372.371 76.44 372.131 76.36C371.891 76.2 371.611 76.12 371.291 76.12C370.411 76.12 369.411 76.4 368.291 76.96C367.251 77.52 366.211 78.32 365.171 79.36C364.131 80.4 363.171 81.64 362.291 83.08L360.731 85.6C360.891 85.52 361.011 85.48 361.091 85.48C361.251 85.4 361.371 85.36 361.451 85.36C362.171 85.36 362.651 85.6 362.891 86.08C363.131 86.56 363.411 87.04 363.731 87.52C364.131 88 364.851 88.24 365.891 88.24ZM395.049 108.76C393.369 109.32 391.969 109.6 390.849 109.6C389.729 109.52 388.489 109 387.129 108.04C385.529 106.44 384.969 104.84 385.449 103.24C386.009 101.56 387.449 99.92 389.769 98.32C391.369 97.36 392.529 96.88 393.249 96.88C394.049 96.8 395.209 97.08 396.729 97.72C399.449 99.4 400.649 101.28 400.329 103.36C400.009 105.36 398.249 107.16 395.049 108.76ZM467.318 112.12C466.758 111.96 465.878 111.44 464.678 110.56C463.478 109.68 462.398 108.36 461.438 106.6C460.558 104.84 460.158 102.56 460.238 99.76C460.318 97.36 460.478 95.68 460.718 94.72C461.038 93.68 460.918 93.12 460.358 93.04C459.958 92.96 459.158 93.32 457.958 94.12C456.758 94.92 455.198 96.2 453.278 97.96C451.358 99.72 449.038 102.04 446.318 104.92C445.358 105.72 444.278 106.72 443.078 107.92C441.958 109.04 440.798 109.88 439.598 110.44C438.478 111 437.478 110.88 436.598 110.08L435.398 109C434.838 108.52 434.358 107.88 433.958 107.08C433.558 106.28 433.438 105.6 433.598 105.04L436.958 95.68C437.918 93.6 438.558 92.08 438.878 91.12C439.278 90.16 439.438 89.56 439.358 89.32C439.358 89.08 439.158 89 438.758 89.08C438.278 89.16 437.598 89.6 436.718 90.4C435.838 91.12 435.238 91.72 434.918 92.2C434.598 92.2 434.158 92.52 433.598 93.16C433.118 93.8 432.638 94.36 432.158 94.84C431.678 95.32 430.838 96.24 429.638 97.6C428.438 98.88 427.158 100.24 425.798 101.68C424.758 102.64 423.558 103.92 422.198 105.52C420.838 107.12 419.638 108.56 418.598 109.84C417.558 111.12 416.918 111.76 416.678 111.76C415.238 111.68 413.918 111.2 412.718 110.32C411.598 109.44 410.838 108.36 410.438 107.08C409.958 106.2 409.918 104.6 410.318 102.28C410.718 99.88 411.478 96.08 412.598 90.88C412.918 89.68 413.198 88.64 413.438 87.76C413.758 86.88 414.078 86 414.398 85.12C414.718 84.24 415.078 83.24 415.478 82.12C415.958 81 416.558 79.64 417.278 78.04C417.678 76.92 417.838 75.88 417.758 74.92C417.678 73.88 417.598 73.04 417.518 72.4C417.518 71.2 417.878 70.24 418.598 69.52C419.398 68.8 420.278 68.32 421.238 68.08C422.198 67.76 422.958 67.68 423.518 67.84C425.758 68.08 427.278 68.88 428.078 70.24C428.878 71.6 429.318 72.92 429.398 74.2C429.478 75.4 429.318 76.48 428.918 77.44C428.518 78.4 428.198 79.2 427.958 79.84L426.638 83.08C425.838 84.92 425.238 86.28 424.838 87.16C424.518 87.96 424.318 88.52 424.238 88.84C424.238 89.08 424.238 89.32 424.238 89.56C424.318 89.8 424.678 89.68 425.318 89.2C425.958 88.72 426.718 88.08 427.598 87.28C428.558 86.4 429.438 85.64 430.238 85C431.678 83.8 433.198 82.6 434.798 81.4C436.478 80.12 438.118 79 439.718 78.04C441.318 77.08 442.638 76.44 443.678 76.12C445.038 76.36 446.278 77.04 447.398 78.16C448.598 79.28 449.358 80.24 449.678 81.04C450.078 82.24 450.118 83.32 449.798 84.28C449.558 85.24 449.358 86.12 449.198 86.92C449.118 87.24 448.958 87.84 448.718 88.72C448.478 89.6 448.238 90.44 447.998 91.24C447.758 91.96 447.638 92.32 447.638 92.32C447.638 92.32 447.878 92.08 448.358 91.6C448.838 91.12 449.478 90.56 450.278 89.92C451.078 89.2 451.878 88.56 452.678 88C456.678 84.96 459.838 83.04 462.158 82.24C464.558 81.36 466.598 82.04 468.278 84.28C469.238 85.16 469.838 86.36 470.078 87.88C470.398 89.4 470.558 91.44 470.558 94C470.638 95.04 470.718 96.2 470.798 97.48C470.958 98.76 471.118 99.88 471.278 100.84C471.518 101.8 471.718 102.4 471.878 102.64C472.118 102.96 472.558 103.28 473.198 103.6C473.838 103.84 474.438 104.04 474.998 104.2C476.118 104.76 476.718 105.8 476.798 107.32C476.958 108.76 476.398 109.88 475.118 110.68C473.918 111.4 472.638 111.84 471.278 112C469.998 112.16 468.678 112.2 467.318 112.12ZM502.879 112.6C500.479 113.96 497.919 114.76 495.199 115C492.559 115.16 490.079 114.8 487.759 113.92C485.439 112.96 483.559 111.56 482.119 109.72C481.319 108.68 480.559 107.04 479.839 104.8C479.119 102.48 478.999 99.36 479.479 95.44C479.959 91.76 481.079 88.04 482.839 84.28C484.679 80.52 486.919 77.2 489.559 74.32C492.199 71.44 495.079 69.48 498.199 68.44C499.319 68.04 500.439 67.76 501.559 67.6C502.759 67.36 504.319 67.32 506.239 67.48C508.079 67.72 509.719 68.2 511.159 68.92C512.599 69.56 513.639 70.28 514.279 71.08C515.559 72.36 516.399 73.6 516.799 74.8C517.199 76 517.359 77.16 517.279 78.28C516.879 80.84 515.719 83.6 513.799 86.56C511.959 89.52 509.359 91.72 505.999 93.16C504.639 93.72 503.039 94.08 501.199 94.24C499.359 94.4 496.839 94.16 493.639 93.52C491.719 93.12 490.439 93.32 489.799 94.12C489.239 94.92 488.999 96.48 489.079 98.8C489.239 100.24 489.559 101.52 490.039 102.64C490.599 103.68 491.599 104.4 493.039 104.8C494.879 105.12 496.199 105.16 496.999 104.92C497.799 104.6 498.799 104.16 499.999 103.6C500.639 103.2 501.239 102.76 501.799 102.28C502.439 101.8 503.039 101.32 503.599 100.84C504.239 100.36 504.759 100 505.159 99.76C505.559 99.44 505.959 99.24 506.359 99.16C506.759 99.08 507.159 99.04 507.559 99.04C508.439 99.12 509.279 99.6 510.079 100.48C510.879 101.36 511.399 102.2 511.639 103C511.639 103.64 511.239 104.56 510.439 105.76C509.639 106.88 508.559 108.08 507.199 109.36C505.919 110.56 504.479 111.64 502.879 112.6ZM501.319 85.84C501.879 85.6 502.679 85.04 503.719 84.16C504.839 83.28 505.839 82.36 506.719 81.4C507.599 80.36 508.039 79.56 508.039 79C508.039 78.12 507.439 77.36 506.239 76.72C505.119 76.08 503.639 75.96 501.799 76.36C501.159 76.52 500.399 76.96 499.519 77.68C498.639 78.4 497.759 79.24 496.879 80.2C495.999 81.08 495.239 81.96 494.599 82.84C493.959 83.64 493.519 84.28 493.279 84.76C493.599 85.16 494.239 85.48 495.199 85.72C496.159 85.96 497.199 86.08 498.319 86.08C499.519 86.08 500.519 86 501.319 85.84Z" fill="#222428"/>
<defs>
<clipPath id="clip0_917_2034">
<rect width="132" height="132" fill="white" transform="translate(0 10)"/>
</clipPath>
</defs>
</svg>
